<svg enable-background="new 0 0 1024 1024" viewBox="0 0 1024 1024" xmlns="http://www.w3.org/2000/svg"><circle cx="512" cy="512" fill="#007bfc" r="512"/><path d="m259.9 357.4c-2.5-3.9-3.9-8.6-3.9-13.6 0-14.1 11.5-25.6 25.6-25.6h131.1c9.1 0 17.1 4.8 21.7 12l181.9 288.5c2.5 4 3.9 8.6 3.9 13.6s-1.5 9.7-3.9 13.6l-65.6 104c-4.5 7.2-12.5 12-21.7 12-9.1 0-17.1-4.8-21.7-12zm395.3 158.1c4.5 7.2 12.5 11.9 21.7 11.9 9.1 0 17.1-4.8 21.7-11.9l22.6-35.8 43-68.2c2.5-3.9 3.9-8.6 3.9-13.7 0-5-1.5-9.7-3.9-13.7l-34.1-54.1c-4.5-7.2-12.5-12-21.7-12h-131.3c-14.1 0-25.6 11.5-25.6 25.6 0 5 1.4 9.7 3.9 13.6z" fill="#fff"/></svg>